<?xml version="1.0" encoding="UTF-8"?><svg id="a" version="1.1" viewBox="0 0 24 24" xmlns="http://www.w3.org/2000/svg"><defs><style>.e{fill:none;stroke:#fff;stroke-linecap:round;stroke-linejoin:round;stroke-width:2px;}</style></defs><path class="e" d="m4.4944 7.5183 5.1031 1.2527c1.2208.31781 1.458 1.1154 1.4393 2.0566l.01868 8.5067c-.01868.99931-.75794 1.4587-1.7197 1.1966l-5.1031-1.2339c-.92852-.22259-1.1963-.6942-1.2337-1.7574l.037367-8.4506c.06184-1.2583.63435-1.6939 1.458-1.5705z"/><path class="e" d="m7.9941 8.3774.051963-1.7751c-.051963-.75565.57441-1.2591 1.2898-1.1218l5.3461 1.29c.97756.17535 1.2712.67235 1.2898 1.6266l.09346 8.918c.0024.80265-.27494 1.4458-1.215 1.2152l-3.7946-.79754"/><path class="e" d="m12.914 6.3439-.0082-1.5552c.0082-1.1793.65469-1.5306 1.4767-1.3461l4.9722 1.1779c.96007.2693 1.6776.74134 1.645 1.8509v8.7684c0 .5604-.40748 1.4568-1.8319 1.1966l-3.1182-.56974"/></svg>
