<?xml version="1.0" encoding="UTF-8"?><svg id="a" xmlns="http://www.w3.org/2000/svg" viewBox="0 0 48 48"><defs><style>.b{fill:none;stroke:#000;stroke-linecap:round;stroke-linejoin:round;}</style></defs><rect class="b" x="6.6181" y="7.0348" width="6.4393" height="3.2162" rx=".6404" ry=".6404" transform="translate(-3.234 9.4239) rotate(-44.72)"/><rect class="b" x="29.0738" y="5.432" width="3.2162" height="6.4393" rx=".6404" ry=".6404" transform="translate(2.9453 24.3651) rotate(-45.28)"/><circle class="b" cx="20.326" cy="19.4145" r="11.0938"/><line class="b" x1="13.0511" y1="27.7916" x2="12.286" y2="30.9816"/><line class="b" x1="27.6008" y1="27.7916" x2="28.3659" y2="30.9816"/><circle class="b" cx="20.326" cy="19.4145" r="1.0569"/><line class="b" x1="20.326" y1="11.2708" x2="20.326" y2="18.3576"/><line class="b" x1="21.3893" y1="19.4145" x2="26.4726" y2="19.4145"/><path class="b" d="M34.7771,25.8799c1.2133-1.6019,3.4954-1.9168,5.0973-.7036,1.6019,1.2133,1.9168,3.4954.7036,5.0973-.0008.0011-.0016.0022-.0025.0032"/><path class="b" d="M32.3758,41.0583c-1.2133,1.6018-3.4955,1.9167-5.0973.7034s-1.9167-3.4955-.7034-5.0973c.0008-.001.0016-.0021.0024-.0031l8.1997-10.7814"/><path class="b" d="M40.5755,30.2767l-8.1997,10.7815"/><path class="b" d="M36.4757,35.6675l-5.7984-4.3969"/></svg>
