<?xml version="1.0" encoding="UTF-8"?><svg id="a" xmlns="http://www.w3.org/2000/svg" viewBox="0 0 48 48"><defs><style>.b{fill:none;stroke:#000;stroke-linecap:round;stroke-linejoin:round;}</style></defs><circle class="b" cx="24" cy="24" r="21.5"/><path class="b" d="m23.2794,20.593c0-1.7145,1.3898-3.1042,3.1042-3.1042h0c1.7145,0,3.1042,1.3898,3.1042,3.1042v5.122"/><line class="b" x1="23.2794" y1="17.4888" x2="23.2794" y2="25.715"/><path class="b" d="m29.4878,20.593c0-1.7145,1.3898-3.1042,3.1042-3.1042h0c1.7145,0,3.1042,1.3898,3.1042,3.1042v5.122"/><path class="b" d="m19.9858,20.6825c0-1.7145-1.3898-3.1042-3.1042-3.1042h0c-1.7145,0-3.1042,1.3898-3.1042,3.1042v2.0177c0,1.7145,1.3898,3.1042,3.1042,3.1042h0c1.7145,0,3.1042-1.3898,3.1042-3.1042"/><line class="b" x1="19.9858" y1="25.8044" x2="19.9858" y2="13.3876"/><path class="b" d="m8.383,29.4918c15.1214-6.7766,18.2928,7.2363,31.8906,1.7422"/><path class="b" d="m38.607,28.0779c-4.0825,1.4598-9.1924,1.0275-16.0589-.9629"/><path class="b" d="m24.3282,32.5218c-5.3515-1.5515-10.7003-3.0075-15.92.0505"/></svg>
