<?xml version="1.0" encoding="UTF-8"?><svg id="a" xmlns="http://www.w3.org/2000/svg" viewBox="0 0 48 48"><defs><style>.b{fill:none;stroke:#000;stroke-linecap:round;stroke-linejoin:round;}</style></defs><path class="b" d="m31.1315,14.8889c-.0625-12.2012-17.3065-12.4281-17.2548-1.1614l-.0517,4.2327"/><path class="b" d="m28.3668,41.0334H8.8339c-1.299,0-2.3448-1.0449-2.3448-2.3428v-17.7358c0-1.2979,1.0458-2.3428,2.3448-2.3428h27.2887c1.299,0,2.3448,1.0449,2.3448,2.3428v7.2835"/><ellipse class="b" cx="34.4766" cy="35.4716" rx="8.2664" ry="8.2595"/><circle class="b" cx="34.5373" cy="35.3351" r="1.837"/><path class="b" d="m34.5611,27.2125l-.0238,2.3296"/><path class="b" d="m42.743,35.4716h-2.1802"/><path class="b" d="m34.5373,41.6437l.0205,2.087"/><path class="b" d="m28.4511,35.4716h-2.241"/><path class="b" d="m39.3431,30.809l-1.7839,3.1245c-.1193-.6237-.7355-1.183-1.1731-1.4164l2.957-1.7081Z"/><path class="b" d="m23.0982,31.5873l.2841,2.4519h-2.0664l.3616-2.4519s-1.3278-.7323-1.3432-1.7646c-.0154-1.0323,1.0074-2.0715,2.0277-2.0624,1.0203.0092,2.0302,1.0266,2.0277,2.0624-.0025,1.0358-1.2915,1.7646-1.2915,1.7646"/></svg>
