<?xml version="1.0" encoding="UTF-8"?><svg id="a" xmlns="http://www.w3.org/2000/svg" viewBox="0 0 48 48"><defs><style>.b{fill:none;stroke:#000;stroke-linecap:round;stroke-linejoin:round;}</style></defs><path class="b" d="m24.371 16.873c7.7056 1e-4 13.926 6.2208 13.926 13.894 0 1.0912-.8846 1.9758-1.9758 1.9758h-23.901c-1.0912 0-1.9758-.8846-1.9758-1.9758 0-7.6737 6.2206-13.894 13.926-13.894z"/><line class="b" x1="36.417" x2="32.482" y1="14.801" y2="19.438"/><line class="b" x1="12.365" x2="16.3" y1="14.801" y2="19.438"/><path class="b" d="m4.1493 21.595c1.1648-9.6219 9.1045-17.088 18.88-17.57 10.105-.4979 18.992 6.625 20.706 16.596"/><path class="b" d="m45.374 16.638-1.6389 3.9279-3.3614-2.5531"/><path class="b" d="m43.855 26.405c-1.1648 9.6219-9.1045 17.088-18.88 17.57-10.105.4979-18.992-6.625-20.706-16.596"/><path class="b" d="m2.6302 31.307 1.6389-3.9279 3.3614 2.5531"/><circle class="b" cx="18.327" cy="26.911" r="2"/><circle class="b" cx="29.672" cy="26.911" r="2"/></svg>
