<?xml version="1.0" encoding="UTF-8"?><svg id="a" xmlns="http://www.w3.org/2000/svg" viewBox="0 0 48 48"><defs><style>.b{fill:none;stroke:#fff;stroke-linecap:round;stroke-linejoin:round;}</style></defs><path class="b" d="M3.5,33.2122V14.7878c0-.56.454-1.0139,1.0139-1.0139h38.9721c.56,0,1.0139.454,1.0139,1.0139v18.4244c0,.56-.454,1.0139-1.0139,1.0139H4.5139c-.56,0-1.0139-.454-1.0139-1.0139h0Z"/><path class="b" d="M26.1778,20.5063v2.7044h4.5931v-2.7044h-4.5931Z"/><path class="b" d="M21.5847,20.5063v2.7044h4.5931v-2.7044h-4.5931Z"/><path class="b" d="M16.9815,20.5063v2.7044h4.6032v-2.7044h-4.6032Z"/><path class="b" d="M12.3884,20.5063v2.7044h4.5931v-2.7044h-4.5931Z"/><path class="b" d="M23.8762,23.2107v2.7044h4.5931v-2.7044h-4.5931Z"/><path class="b" d="M19.2831,23.2107v2.7044h4.5931v-2.7044h-4.5931Z"/><path class="b" d="M14.6798,23.2107v2.7044h4.6032v-2.7044h-4.6032Z"/><path class="b" d="M10.0867,23.2107v2.7044h4.5931v-2.7044"/><path class="b" d="M26.1778,25.915v2.7044h4.5931v-2.7044h-4.5931Z"/><path class="b" d="M21.5847,25.915v2.7044h4.5931v-2.7044h-4.5931Z"/><path class="b" d="M21.5847,25.915h-4.6032v2.7044h4.6032"/><path class="b" d="M16.9815,25.915h-4.5931v2.7044h4.5931"/><path class="b" d="M12.7609,28.6194h-3.8481v2.7044h19.2489v-2.7044"/><path class="b" d="M12.3884,20.5063v2.7044h-6.8947v2.7044h4.5931v-2.7044M7.7953,25.915h4.5931v2.7044h-6.8947v-2.7044"/><path class="b" d="M30.7709,20.5063v2.7044h4.5931v-2.7044h-4.5931Z"/><path class="b" d="M26.1778,20.5063v2.7044h4.5931v-2.7044h-4.5931Z"/><path class="b" d="M28.4693,23.2107v2.7044h4.5931v-2.7044h-4.5931Z"/><path class="b" d="M30.7709,25.915v2.7044h2.2915v-2.7044h-2.2915Z"/><path class="b" d="M26.1778,25.915v2.7044h4.5931v-2.7044h-4.5931Z"/><g><path class="b" d="M37.9133,20.5063v2.7044h4.5931v-2.7044h-4.5931Z"/><path class="b" d="M37.9133,23.2107v2.7044h4.5931v-2.7044h-4.5931Z"/><path class="b" d="M37.9133,25.915v2.7044h4.5931v-2.7044h-4.5931Z"/><path class="b" d="M37.9133,28.6194v2.7044h4.5931v-2.7044h-4.5931Z"/></g><path class="b" d="M6.2169,15.9172h9.8987"/><path class="b" d="M38.106,15.9172h1.7271"/><path class="b" d="M7.7953,20.5063v2.7044h4.5931v-2.7044h-4.5931Z"/><path class="b" d="M3.5,17.9538h41"/></svg>
