<?xml version="1.0" encoding="UTF-8"?><svg id="a" xmlns="http://www.w3.org/2000/svg" viewBox="0 0 48 48"><defs><style>.b{fill:none;stroke:#fff;stroke-linecap:round;stroke-linejoin:round;}.c{fill:#fff;stroke-width:0px;}</style></defs><circle class="b" cx="9.722" cy="24" r="3.625"/><path class="b" d="M11.7212,24h-3.9985M9.722,22.0076v3.9847"/><path class="b" d="M18.6918,30.7898s-11.4811,2.456-13.7014.9148c-2.2202-1.5411-2.4905-6.8996-2.4905-7.7046s.2702-6.1635,2.4905-7.7046c2.2202-1.5411,13.7014.9148,13.7014.9148"/><path class="b" d="M34.6164,30.7898v-13.5796H13.3836v13.5796h21.2327Z"/><path class="b" d="M29.1414,27.2999v-6.5998h-10.2828v6.5998h10.2828Z"/><path class="b" d="M29.3082,30.7898s11.4811,2.456,13.7013.9148,2.4905-6.8996,2.4905-7.7046-.2702-6.1635-2.4905-7.7046-13.7013.9148-13.7013.9148"/><circle class="c" cx="38.2021" cy="22.0483" r=".75"/><circle class="c" cx="38.2021" cy="24" r=".75"/><circle class="c" cx="38.2021" cy="25.9517" r=".75"/><circle class="c" cx="42.1082" cy="22.0483" r=".75"/><circle class="c" cx="40.1565" cy="22.0483" r=".75"/><circle class="c" cx="42.1082" cy="24" r=".75"/><circle class="c" cx="40.1565" cy="24" r=".75"/><circle class="c" cx="42.1082" cy="25.9517" r=".75"/><circle class="c" cx="40.1565" cy="25.9517" r=".75"/><path class="b" d="M15.1693,22.5654h.9695"/><path class="b" d="M15.1693,25.4346h.9695"/><path class="b" d="M31.8612,24h.9695"/><path class="b" d="M31.8612,26.1843h.9695"/><path class="b" d="M31.8612,21.8157h.9695"/><circle class="b" cx="38.1167" cy="28.9438" r="1.1066"/><circle class="b" cx="41.5604" cy="29.4477" r="1.1066"/><circle class="b" cx="38.1167" cy="19.0562" r="1.1066"/><circle class="b" cx="41.5604" cy="18.5523" r="1.1066"/></svg>
