<?xml version="1.0" encoding="UTF-8"?><svg xmlns="http://www.w3.org/2000/svg" viewBox="0 0 48 48"><defs><style>.b{fill:none;stroke:#fff;stroke-linecap:round;stroke-linejoin:round;}</style></defs><path class="b" d="M38.5,5.5H9.5c-2.2091,0-4,1.7909-4,4v29c0,2.2091,1.7909,4,4,4h29c2.2091,0,4-1.7909,4-4V9.5c0-2.2091-1.7909-4-4-4Z"/><polyline class="b" points="13.4659 30.6545 13.4659 9.5 24 30.678 34.5341 9.5314 34.5341 30.678"/><line class="b" x1="17.8177" y1="38.5" x2="20.6774" y2="38.5"/><line class="b" x1="17.8177" y1="32.7807" x2="20.6774" y2="32.7807"/><line class="b" x1="17.8177" y1="35.6403" x2="19.6765" y2="35.6403"/><line class="b" x1="17.8177" y1="32.7807" x2="17.8177" y2="38.5"/><line class="b" x1="23.5419" y1="32.7807" x2="23.5419" y2="38.5"/><path class="b" d="M26.4647,32.7807v3.7891c0,1.0724.8579,1.9303,1.8588,1.9303s1.8588-.8579,1.8588-1.9303v-3.7891"/></svg>
