<?xml version="1.0" encoding="UTF-8"?><svg id="a" xmlns="http://www.w3.org/2000/svg" viewBox="0 0 48 48"><defs><style>.b{fill:none;stroke:#fff;stroke-linecap:round;stroke-linejoin:round;}</style></defs><path class="b" d="M33,42.5h5.5c2.2091,0,4-1.7909,4-4v-4.084"/><path class="b" d="M5.5,36.416v2.084c0,2.2091,1.7909,4,4,4h7.6875"/><path class="b" d="M17.1875,5.5h-7.6875c-2.2091,0-4,1.7909-4,4v3.1719"/><path class="b" d="M30.8125,5.5h7.6875c2.2091,0,4,1.7909,4,4v3.1719"/><path class="b" d="M43.2779,15.3472L22.8324,3.5407c-.8364-.483-1.906-.1964-2.3889.6402L5.1418,30.6894c-.4829.8366-.1963,1.9063.6401,2.3893h0l20.4455,11.8065c.8364.483,1.906.1964,2.3889-.6402l15.3018-26.5085c.4829-.8366.1963-1.9063-.6401-2.3893Z"/><path class="b" d="M34.2511,19.1776l-13.5202-7.9182"/><path class="b" d="M36.0056,24.5922l-17.2326-9.9511"/><path class="b" d="M34.0224,28.0449l-17.2326-9.9511"/></svg>
