<?xml version="1.0" encoding="UTF-8"?><svg id="a" xmlns="http://www.w3.org/2000/svg" viewBox="0 0 48 48"><defs><style>.b{fill:none;stroke:#fff;stroke-linecap:round;stroke-linejoin:round;}.c{fill:#fff;stroke-width:0px;}</style></defs><path class="b" d="M38.5,5.5H9.5c-2.2091,0-4,1.7909-4,4v29c0,2.2091,1.7909,4,4,4h29c2.2091,0,4-1.7909,4-4V9.5c0-2.2091-1.7909-4-4-4Z"/><line class="b" x1="9.5" y1="20.0165" x2="15.13" y2="20.0165"/><line class="b" x1="12.3681" y1="28.5147" x2="12.3681" y2="20.0165"/><path class="b" d="M19.804,26.3901c0,1.1685-.956,2.1245-2.1245,2.1245h0c-1.1685,0-2.1245-.956-2.1245-2.1245v-1.381c0-1.1685.956-2.1245,2.1245-2.1245h0c1.1685,0,2.1245.956,2.1245,2.1245"/><line class="b" x1="19.804" y1="28.5147" x2="19.804" y2="22.8846"/><circle class="c" cx="22.9908" cy="20.3352" r=".75"/><line class="b" x1="22.9908" y1="22.8846" x2="22.9908" y2="28.5147"/><circle class="c" cx="37.6502" cy="20.3352" r=".75"/><line class="b" x1="37.6502" y1="22.8846" x2="37.6502" y2="28.5147"/><path class="b" d="M26.1777,25.0092c0-1.1685.956-2.1245,2.1245-2.1245h0c1.1685,0,2.1245.956,2.1245,2.1245v3.3993"/><line class="b" x1="26.1777" y1="22.8846" x2="26.1777" y2="28.4084"/><path class="b" d="M30.4267,25.0092c0-1.1685.956-2.1245,2.1245-2.1245h0c1.1685,0,2.1245.956,2.1245,2.1245v3.3993"/></svg>
