<?xml version="1.0" encoding="UTF-8"?><svg id="b" xmlns="http://www.w3.org/2000/svg" viewBox="0 0 48 48"><defs><style>.b{fill:none;stroke:#fff;stroke-linecap:round;stroke-linejoin:round;}</style></defs><rect class="b" x="5.5" y="5.5" width="37" height="37" rx="4" ry="4"/><path class="b" d="M30.5976,28.6868v-3.8649c0-1.2883-1.054-2.3423-2.3423-2.3423h0c-1.2883,0-2.3423,1.0541-2.3423,2.3423"/><line class="b" x1="25.9129" y1="28.6868" x2="25.9129" y2="22.3625"/><path class="b" d="M32.901,28.6575v-9.3693h3.045c1.7568,0,3.1622,1.4054,3.1622,3.1622s-1.4054,3.1622-3.1622,3.1622h-3.045"/><path class="b" d="M17.4024,28.6868v-9.3694h3.045c1.7568,0,3.1622,1.4054,3.1622,3.1622s-1.4054,3.1622-3.1622,3.1622h-3.045"/><path class="b" d="M8.8918,19.3175v6.2072c0,1.7568,1.4054,3.1622,3.045,3.1622s3.1622-1.4054,3.1622-3.1622v-6.2072"/></svg>
